# xmcd
#
# Track frame offsets: 
#        150
#        15811
#        32398
#        52334
#        66959
#        82216
#
# Disc length: 1320 seconds
#
# Revision: 0
# Processed by: cddbd v1.5.2PL0 Copyright (c) Steve Scherf et al.
# Submitted via: ExactAudioCopy v1.1
#
DISCID=46052606
DTITLE=Tyler Bryant and The Shakedown - The Wayside
DYEAR=2015
DGENRE=Blues
TTITLE0=Criminial Imagination
TTITLE1=Loaded Dice and Buried Money
TTITLE2=Devil's Keep
TTITLE3=Mojo Workin'
TTITLE4=Stitch It Up
TTITLE5=The Wayside
EXTD=
EXTT0=
EXTT1=
EXTT2=
EXTT3=
EXTT4=
EXTT5=
PLAYORDER=
